<?xml version="1.0" standalone="no"?>
<!DOCTYPE svg PUBLIC "-//W3C//DTD SVG 20010904//EN"
 "http://www.w3.org/TR/2001/REC-SVG-20010904/DTD/svg10.dtd">
<svg version="1.0" xmlns="http://www.w3.org/2000/svg"
 width="300.000000pt" height="300.000000pt" viewBox="0 0 300.000000 300.000000"
 preserveAspectRatio="xMidYMid meet">
<metadata>
Created by potrace 1.11, written by Peter Selinger 2001-2013
</metadata>
<g transform="translate(0.000000,300.000000) scale(0.100000,-0.100000)"
fill="#000000" stroke="none">
<path d="M1497 2972 c-32 -35 -22 -67 33 -106 53 -38 62 -63 30 -83 -24 -15
-70 -1 -70 21 0 8 -4 18 -10 21 -6 4 -10 -5 -10 -20 0 -55 108 -59 130 -5 16
39 9 54 -45 92 -45 32 -55 54 -33 76 20 20 47 14 63 -15 l15 -28 -2 30 c-3 27
-7 30 -44 33 -29 2 -45 -2 -57 -16z"/>
<path d="M1252 2970 c-33 -5 -33 -5 -12 -22 12 -11 20 -30 21 -50 0 -18 3 -53
6 -77 4 -36 2 -47 -13 -58 -17 -12 -14 -13 29 -10 45 4 79 17 44 17 -10 0 -17
3 -17 8 -1 4 -3 24 -6 45 -9 57 8 50 73 -31 14 -19 26 -23 53 -20 l35 4 -26
11 c-14 6 -38 27 -53 47 l-27 36 19 25 c12 15 18 34 15 45 -10 38 -45 45 -141
30z m108 -55 c0 -29 -4 -36 -25 -41 -32 -8 -37 -3 -41 38 -5 40 18 63 47 47
13 -6 19 -21 19 -44z"/>
<path d="M1673 2969 c18 -11 19 -37 2 -119 -2 -8 -4 -27 -4 -42 -1 -18 -8 -29
-22 -33 -28 -9 -22 -13 36 -20 44 -6 48 -5 32 7 -17 13 -17 20 -6 100 10 73
15 87 32 92 29 7 20 12 -38 20 -39 5 -46 4 -32 -5z"/>
<path d="M1812 2946 c-24 -30 -25 -38 -4 -27 28 15 72 14 78 -2 2 -7 -2 -32
-10 -55 -8 -23 -14 -42 -12 -42 2 0 -2 -17 -9 -37 -9 -25 -21 -40 -35 -43 -18
-4 -11 -9 29 -21 28 -9 51 -12 51 -7 0 4 -5 8 -11 8 -16 0 1 83 36 177 7 20
65 -5 65 -28 0 -10 5 -19 11 -19 6 0 9 12 7 26 -3 23 -10 29 -53 40 -27 7 -69
19 -92 27 -31 11 -45 12 -51 3z"/>
<path d="M1071 2925 c-65 -19 -72 -24 -55 -33 14 -8 27 -36 43 -92 21 -79 22
-82 4 -97 -17 -14 -17 -14 0 -9 11 3 30 9 43 12 23 6 34 24 15 24 -5 0 -12 12
-15 28 -4 15 -10 36 -13 47 -3 11 -2 17 2 13 4 -4 16 -3 26 2 13 7 22 5 35 -7
15 -16 16 -15 9 18 -4 19 -12 39 -18 44 -7 7 -8 6 -3 -2 8 -15 -22 -45 -42
-41 -20 4 -39 65 -25 79 12 12 62 15 86 4 17 -7 18 -6 6 14 -8 11 -16 20 -19
20 -3 -1 -39 -12 -79 -24z"/>
<path d="M915 2872 c-21 -11 -25 -17 -15 -20 23 -8 25 -15 28 -94 l3 -73 -47
45 c-68 64 -74 73 -62 87 15 19 5 16 -43 -12 -39 -22 -41 -25 -19 -25 17 -1
49 -24 99 -70 41 -38 77 -67 81 -65 4 3 5 52 3 111 -3 72 -1 110 8 120 14 18
3 16 -36 -4z"/>
<path d="M2118 2837 c-71 -70 -154 -137 -165 -133 -25 10 -13 -9 14 -21 35
-17 48 -16 34 0 -8 11 -5 19 13 36 47 44 104 -4 74 -62 -5 -10 -13 -15 -19
-12 -5 4 -9 2 -9 -2 0 -5 17 -15 38 -23 20 -8 42 -17 47 -19 6 -2 3 5 -6 15
-17 20 -17 25 -5 157 4 42 5 77 2 77 -2 0 -11 -6 -18 -13z m-12 -53 c-3 -9 -6
-24 -6 -35 0 -16 -3 -17 -25 -7 l-25 11 22 24 c25 26 43 30 34 7z"/>
<path d="M1208 2775 c-6 -13 -24 -29 -41 -35 -40 -13 -29 -24 14 -13 27 7 35
15 40 41 8 38 3 41 -13 7z"/>
<path d="M2232 2771 l-23 -17 36 0 c19 0 42 -7 50 -15 13 -12 9 -23 -33 -84
-31 -47 -55 -71 -70 -73 -21 -3 -21 -5 10 -26 60 -40 61 -41 49 -17 -10 19 -5
31 40 96 44 64 54 73 70 65 23 -13 38 -40 31 -59 -2 -8 0 -11 5 -8 20 12 22
48 5 54 -9 4 -19 9 -22 13 -3 3 -23 17 -45 30 -22 13 -49 31 -60 41 -19 17
-21 17 -43 0z"/>
<path d="M660 2734 c-43 -31 -50 -39 -27 -31 23 9 119 -117 113 -150 -4 -28
-2 -28 40 -2 36 22 45 40 17 33 -13 -3 -31 15 -67 68 -41 60 -47 74 -37 90 15
24 3 22 -39 -8z"/>
<path d="M1389 2715 c-3 -2 -27 -6 -54 -9 -68 -6 -125 -20 -220 -52 -362 -121
-646 -409 -766 -777 -16 -50 -32 -105 -35 -122 -2 -16 -9 -55 -14 -85 -5 -30
-8 -118 -6 -195 4 -190 35 -327 109 -485 200 -428 624 -700 1095 -702 500 -3
948 299 1137 768 60 149 79 249 79 434 1 182 -9 255 -56 395 -103 311 -329
569 -626 713 -45 23 -86 42 -90 43 -10 2 -19 5 -77 24 -93 31 -199 47 -336 50
-75 3 -138 2 -140 0z"/>
<path d="M540 2648 c-29 -27 -31 -30 -11 -25 18 4 32 -4 67 -41 50 -53 53 -62
22 -57 -13 2 -60 6 -106 10 -75 5 -85 4 -110 -16 l-27 -22 26 7 c23 5 32 -1
65 -42 21 -26 41 -49 44 -52 26 -25 32 -41 20 -55 -22 -27 0 -16 33 16 26 25
28 30 11 25 -17 -5 -31 4 -68 46 -41 47 -59 77 -38 65 6 -4 97 -14 199 -22 40
-2 36 6 -42 90 -42 46 -54 65 -50 83 7 28 7 28 -35 -10z"/>
<path d="M2458 2627 c16 -19 12 -27 -42 -85 -23 -24 -45 -50 -49 -59 -6 -10
-17 -13 -33 -9 -13 4 -24 5 -24 3 0 -2 18 -18 40 -36 39 -31 40 -31 35 -9 -8
33 101 152 130 142 17 -6 17 -4 -5 20 -29 32 -75 61 -52 33z"/>
<path d="M2528 2493 c-9 -10 -14 -25 -13 -33 16 -93 13 -116 -17 -126 -41 -13
-69 44 -43 86 11 18 -10 11 -27 -9 -15 -18 -15 -21 3 -50 56 -92 150 -42 125
66 -9 40 -8 47 8 59 13 9 24 10 36 4 20 -11 33 -47 19 -56 -5 -3 -9 -10 -9
-16 0 -6 9 -3 20 7 25 23 25 25 -5 58 -30 31 -74 36 -97 10z"/>
<path d="M340 2451 c0 -5 -7 -17 -16 -26 -9 -9 -14 -19 -10 -22 3 -4 11 -2 18
5 8 8 24 2 62 -26 66 -48 76 -61 73 -97 -1 -20 -10 -34 -29 -45 -25 -13 -30
-13 -60 4 -18 11 -50 33 -71 49 -30 23 -36 34 -31 51 8 26 2 21 -30 -27 -29
-43 -33 -55 -11 -37 12 10 25 4 72 -29 32 -22 70 -42 85 -45 32 -5 75 24 89
62 15 39 -4 71 -71 120 -39 28 -57 48 -53 57 3 8 0 15 -6 15 -6 0 -11 -4 -11
-9z"/>
<path d="M2713 2343 c-18 -6 -16 -23 1 -23 14 0 46 -36 46 -52 0 -15 -155 -97
-164 -88 -23 23 -23 7 1 -35 23 -42 40 -60 30 -32 -5 15 10 47 23 47 5 0 36
17 71 37 59 35 62 36 75 18 17 -23 18 -47 2 -63 -6 -6 -9 -14 -7 -17 3 -3 15
5 27 18 l21 22 -44 70 c-58 93 -68 104 -82 98z"/>
<path d="M131 2115 c-12 -29 -11 -31 56 -92 l68 -62 -35 -2 c-19 -1 -58 -1
-87 -1 -55 0 -66 -7 -77 -48 -7 -24 -6 -24 8 -6 16 19 18 19 93 -20 57 -29 79
-45 83 -63 5 -23 7 -21 22 17 9 23 13 42 8 42 -5 0 -10 -6 -12 -12 -3 -9 -25
-3 -74 20 -38 17 -67 32 -64 33 3 1 43 2 89 3 47 1 86 6 87 12 1 5 -26 34 -61
64 -35 30 -64 58 -65 62 0 4 30 -4 67 -16 54 -18 69 -28 73 -46 5 -21 8 -18
24 24 10 26 15 50 12 53 -3 4 -6 1 -6 -5 0 -18 -33 -15 -115 11 -56 17 -75 27
-78 42 -3 17 -5 15 -16 -10z"/>
<path d="M2848 2110 c-2 -17 -18 -28 -67 -45 -35 -13 -71 -30 -79 -39 -22 -22
-19 -93 4 -117 21 -20 74 -33 74 -18 0 5 -11 9 -24 9 -28 0 -43 16 -50 52 -6
37 9 52 87 81 59 22 69 24 82 10 18 -18 19 -9 2 39 -17 48 -25 55 -29 28z"/>
<path d="M2908 1963 c-3 -12 -24 -26 -54 -37 -27 -10 -53 -22 -58 -27 -10 -9
23 0 83 22 30 11 36 10 48 -6 17 -24 17 -6 -1 35 -11 27 -14 29 -18 13z"/>
<path d="M2940 1847 c0 -17 -29 -25 -141 -42 -29 -5 -40 -2 -48 12 -9 16 -10
15 -10 -7 2 -33 16 -90 18 -68 1 21 8 25 57 32 36 6 40 4 41 -16 1 -12 -6 -31
-15 -42 -16 -18 -16 -19 1 -13 10 4 27 7 38 7 10 0 19 5 19 10 0 6 -7 10 -15
10 -9 0 -15 9 -15 25 0 19 7 26 28 31 15 3 32 7 38 9 7 2 15 -10 18 -27 8 -42
8 -45 -10 -62 -11 -12 -12 -16 -2 -16 34 1 40 15 28 76 -6 32 -12 64 -14 71
-4 20 -16 28 -16 10z"/>
<path d="M30 1811 c0 -11 -3 -27 -7 -37 -6 -16 -5 -16 16 -2 17 12 30 14 54 7
18 -5 44 -9 58 -9 73 0 102 -98 37 -123 -22 -8 -151 13 -160 27 -4 5 -4 14 -2
18 3 4 0 8 -5 8 -6 0 -11 -12 -11 -27 0 -16 -3 -39 -7 -53 -6 -24 -6 -24 11
-7 11 11 27 15 44 13 126 -21 156 -14 178 40 11 26 10 36 -4 65 -18 36 -31 42
-124 60 -39 7 -58 15 -58 25 0 8 -4 14 -10 14 -5 0 -10 -9 -10 -19z"/>
<path d="M2958 1635 c24 -31 29 -61 10 -67 -7 -3 -51 -4 -98 -4 -62 1 -84 4
-82 14 1 6 -2 12 -7 12 -5 0 -9 -22 -8 -49 2 -47 3 -49 19 -32 13 15 34 19
102 20 l86 2 0 -30 c0 -20 -8 -35 -22 -45 -17 -12 -19 -16 -6 -16 44 0 46 7
41 108 -3 53 -6 98 -7 98 0 1 -12 5 -25 9 l-24 7 21 -27z"/>
<path d="M183 1546 c23 -18 28 -30 25 -57 l-3 -34 -83 -3 c-64 -3 -88 0 -101
12 -15 14 -17 11 -17 -34 -1 -43 1 -47 12 -31 11 15 28 19 98 20 72 2 86 -1
95 -16 8 -14 10 3 11 68 0 82 -1 87 -22 93 -40 10 -44 6 -15 -18z"/>
<path d="M2781 1430 c-1 -3 -8 -42 -15 -88 l-12 -83 28 -15 27 -14 -19 33
c-14 24 -18 43 -14 66 6 31 8 32 48 27 22 -3 42 -5 44 -5 1 -1 2 -13 2 -27 0
-17 -6 -28 -20 -31 -33 -9 -23 -18 20 -20 36 -1 39 0 24 14 -20 20 -14 55 10
59 10 1 29 -2 43 -7 20 -8 23 -14 19 -41 -3 -18 -12 -38 -20 -44 -23 -16 -20
-25 6 -15 23 8 23 11 33 106 3 33 2 55 -2 48 -12 -17 -36 -19 -120 -9 -62 7
-72 11 -76 29 -2 12 -5 20 -6 17z"/>
<path d="M190 1350 c26 -23 35 -43 31 -76 -1 -7 -38 -17 -88 -24 -81 -12 -87
-11 -101 6 -13 17 -14 16 -8 -15 3 -18 6 -42 6 -52 0 -11 4 -19 10 -19 5 0 9
3 9 8 -3 20 2 33 14 30 11 -2 51 3 139 18 18 3 30 -2 38 -13 8 -14 9 -8 4 27
-10 62 -12 82 -13 106 -1 17 -9 23 -36 26 l-34 4 29 -26z"/>
<path d="M2749 1213 c-5 -16 -12 -34 -14 -40 -2 -7 0 -13 4 -13 5 0 11 5 13
11 3 8 27 4 76 -12 42 -13 68 -27 63 -32 -9 -9 -152 -74 -184 -84 -33 -10 -12
-25 73 -52 61 -20 88 -34 96 -50 l11 -22 5 23 c3 13 9 31 13 41 7 17 6 18 -12
7 -15 -10 -31 -9 -81 6 -34 10 -62 21 -62 24 0 3 45 25 99 49 73 31 101 48
105 64 9 33 7 44 -4 25 -12 -19 -23 -18 -105 12 -60 22 -89 45 -79 61 3 5 3 9
-1 9 -3 0 -10 -12 -16 -27z"/>
<path d="M250 1162 c0 -21 -6 -24 -161 -68 -10 -3 -19 3 -23 12 -4 9 -9 14
-12 11 -8 -8 18 -87 29 -87 5 0 7 6 4 14 -4 10 18 20 81 39 77 22 89 23 104
10 15 -14 16 -12 2 33 -16 55 -24 66 -24 36z"/>
<path d="M253 1014 c-20 -8 -34 -10 -38 -4 -3 6 -10 10 -14 10 -8 0 32 -87 45
-99 4 -3 4 6 0 22 -5 23 -2 29 20 39 32 15 55 2 66 -38 10 -38 -5 -76 -41 -97
-62 -37 -120 -28 -146 22 -20 39 -20 37 0 67 21 32 16 38 -12 16 -21 -17 -21
-18 -5 -67 28 -82 95 -114 167 -79 66 31 78 114 28 187 -29 41 -26 41 -70 21z"/>
<path d="M2651 954 c-28 -35 -33 -57 -22 -87 16 -42 54 -45 117 -11 50 27 54
28 70 12 26 -25 5 -68 -33 -69 l-28 -1 28 -10 c33 -12 32 -12 51 33 12 28 12
40 3 60 -18 35 -57 36 -116 2 -48 -27 -50 -27 -70 -9 -19 17 -19 21 -6 47 11
20 24 29 47 31 l33 3 -27 12 c-24 11 -29 10 -47 -13z"/>
<path d="M2566 800 c-31 -47 -32 -54 -8 -39 15 10 30 4 91 -37 53 -36 71 -54
67 -66 -7 -28 7 -21 29 15 28 46 28 46 7 40 -13 -3 -45 12 -91 43 -56 37 -70
51 -65 66 9 29 -1 21 -30 -22z"/>
<path d="M403 812 c5 -20 -5 -30 -70 -72 -59 -39 -79 -47 -90 -38 -24 20 -21
4 9 -42 23 -34 29 -39 26 -21 -2 15 4 28 16 35 11 6 44 28 74 48 45 31 58 36
74 27 23 -12 22 -10 -20 51 -19 27 -23 30 -19 12z"/>
<path d="M2491 699 c-40 -36 -40 -82 0 -111 23 -18 29 -18 68 -5 23 8 50 14
59 12 9 -2 20 -4 25 -4 4 -1 7 -12 7 -26 0 -27 -24 -45 -51 -38 -24 7 -24 -3
-1 -16 14 -8 25 -4 45 15 32 30 35 66 7 94 -21 21 -28 21 -98 1 -39 -11 -46
-10 -63 5 -24 22 -24 29 2 55 16 16 29 20 50 15 35 -7 36 -3 5 17 -22 15 -25
14 -55 -14z"/>
<path d="M426 681 c-14 -15 -16 -32 -13 -80 4 -66 -7 -87 -42 -76 -25 8 -34
31 -21 56 13 23 4 25 -16 4 -12 -12 -13 -19 -3 -37 27 -50 73 -62 104 -28 17
19 20 45 11 113 -2 19 2 31 16 38 44 23 83 -24 58 -71 -11 -20 -10 -21 8 -11
28 15 32 32 13 61 -33 53 -83 66 -115 31z"/>
<path d="M2310 530 c-28 -24 -31 -28 -12 -23 16 4 22 1 22 -10 0 -8 2 -21 5
-29 10 -28 -9 -38 -48 -26 -29 9 -34 14 -25 25 20 24 3 23 -26 -2 -16 -14 -33
-25 -38 -25 -4 0 -8 -4 -8 -9 0 -4 10 -7 23 -5 12 2 44 -4 72 -14 l50 -17 1
-50 c1 -27 -3 -56 -8 -63 -20 -23 -2 -22 32 3 30 22 31 25 12 25 -19 0 -22 5
-22 41 0 34 3 40 16 35 9 -3 27 -9 41 -12 15 -4 22 -12 19 -20 -8 -21 6 -16
44 17 l35 29 -30 -5 c-17 -3 -52 3 -79 13 -48 17 -49 18 -51 62 0 25 5 55 12
68 18 30 5 27 -37 -8z"/>
<path d="M665 521 c9 -28 -93 -164 -117 -157 -29 7 -20 -7 22 -36 37 -26 54
-26 29 -1 -8 8 -6 18 7 37 18 24 44 35 44 18 0 -15 55 -29 81 -20 30 10 50 47
42 76 -3 11 -30 39 -60 62 -42 31 -53 36 -48 21z m69 -57 c20 -19 20 -18 1
-54 -15 -29 -36 -37 -69 -24 -22 8 -20 22 7 61 25 37 38 40 61 17z"/>
<path d="M2125 402 c-27 -15 -28 -17 -9 -20 21 -3 66 -79 79 -134 13 -52 -62
-91 -97 -50 -9 9 -28 42 -43 71 -23 46 -25 58 -15 74 6 11 8 17 3 15 -4 -2
-26 -13 -48 -23 -35 -17 -37 -19 -17 -23 16 -2 30 -19 48 -55 29 -60 42 -78
69 -93 26 -14 76 -1 100 26 25 28 22 58 -16 135 -24 48 -30 69 -21 72 13 5 17
23 5 23 -5 -1 -21 -8 -38 -18z"/>
<path d="M835 338 c-27 -24 -61 -53 -75 -65 -22 -21 -41 -28 -62 -24 -17 2 -6
-9 22 -24 37 -19 39 -19 33 3 -7 29 39 55 72 40 20 -9 24 -17 21 -37 -2 -14
-5 -31 -5 -38 -1 -7 -8 -10 -16 -7 -30 12 -13 -12 21 -28 44 -22 60 -23 39 -2
-8 9 -13 24 -11 33 3 9 7 36 10 61 3 25 8 64 12 88 3 23 2 42 -3 42 -4 0 -30
-19 -58 -42z m22 -65 c-3 -2 -15 1 -27 7 l-22 12 24 25 23 25 3 -32 c2 -18 1
-34 -1 -37z"/>
<path d="M1013 313 c15 -18 53 -121 46 -126 -2 -2 -22 -15 -45 -30 -22 -15
-49 -27 -59 -27 -26 0 -9 -14 34 -29 30 -10 32 -9 20 5 -12 14 -9 20 16 40 37
30 41 30 49 0 3 -13 9 -31 12 -40 4 -11 1 -16 -12 -16 -24 0 -10 -11 34 -27
52 -18 59 -16 34 7 -12 12 -22 24 -22 28 0 4 -7 28 -14 54 l-15 46 41 27 c22
14 48 27 59 28 26 2 24 14 -3 20 -13 2 -32 8 -43 13 -17 7 -18 6 -7 -8 11 -14
8 -20 -20 -42 l-33 -26 -11 38 c-9 31 -9 38 5 43 14 6 13 8 -4 14 -11 4 -30
11 -43 16 -33 13 -37 11 -19 -8z"/>
<path d="M1820 272 c-34 -12 -40 -17 -24 -20 22 -3 33 -25 65 -130 11 -37 11
-45 -1 -52 -30 -19 -2 -16 73 8 67 21 77 27 77 48 0 33 -17 39 -24 9 -6 -24
-39 -45 -70 -45 -7 0 -20 24 -29 53 -8 28 -20 67 -26 84 -7 26 -6 36 5 48 19
18 11 18 -46 -3z"/>
<path d="M1647 243 c-3 -2 -86 -11 -123 -12 -15 -1 -23 -9 -26 -26 -6 -30 -4
-31 22 -5 28 28 70 27 70 -2 1 -13 3 -56 6 -96 5 -63 4 -72 -11 -72 -9 0 -14
-4 -11 -8 6 -10 76 -3 76 7 0 4 -4 11 -9 17 -5 5 -12 48 -15 95 l-6 86 31 -1
c18 -1 37 -10 46 -21 14 -19 14 -19 11 10 -2 25 -7 30 -31 30 -15 1 -29 0 -30
-2z"/>
<path d="M1314 234 c16 -5 18 -13 12 -72 -3 -37 -6 -79 -6 -94 0 -18 -5 -28
-15 -28 -8 0 -15 -4 -15 -9 0 -5 24 -10 53 -11 28 0 63 -2 77 -4 14 -1 30 4
37 13 19 25 15 36 -6 17 -13 -12 -32 -16 -58 -14 -37 3 -38 4 -38 41 -1 20 2
41 5 46 8 14 60 1 60 -15 0 -8 4 -14 8 -14 5 0 9 16 9 35 0 33 -1 34 -18 19
-27 -25 -59 -3 -56 39 2 28 6 32 34 35 22 2 38 -3 52 -17 l21 -21 0 25 c0 17
-6 25 -17 25 -10 0 -49 2 -88 5 -38 2 -62 2 -51 -1z"/>
</g>
</svg>
